<svg width="1024" height="768" xmlns="http://www.w3.org/2000/svg" version="1.0" preserveAspectRatio="xMidYMid meet">
 <g>
  <title>Layer 1</title>
  <g id="svg_25">
   <path d="m498.69537,53.84993c-30.70001,19.20001 -78.40002,41.00009 -116,52.90005c-20.29999,6.39999 -51.29999,14.39999 -71.60001,18.39999l-21.09998,4.10001l-1.20001,11.59998c-4.20001,40.00003 -5.29999,62.60001 -4.5,87.30002c0.39999,11.5 1,20.79999 1.29999,20.79999c0.30002,0 1.30002,-1.79999 2.20001,-3.89999c2.5,-6 12.39999,-22.29999 17.79999,-29.39999l4.80002,-6.39999l0.59998,-13.39999c0.5,-12.19998 3.10001,-38.29999 4.20001,-43.60001c0.39999,-1.70001 1.60001,-2.40002 6.29999,-3.29999c65.60001,-13.10004 126.79999,-35.60001 178.79999,-65.60005l11.10004,-6.39999l9.3999,5.59999c13,7.7 45.80011,23.90005 61.40002,30.30005c33.30005,13.7 69.90009,25.20001 105,33.10004c10.5,2.29999 19.20007,4.29999 19.40009,4.49997c0.89996,1 3.20001,22.80002 4.09991,39.89999l1.1001,19l8.29999,12.5c4.59991,6.89999 9.79999,15.39999 11.5,18.80002c1.70001,3.39996 3.5,6.39996 3.89996,6.69998c1.30005,0.80002 1.69995,-11.30002 1.60004,-41.89999c0,-24.39999 -1.20001,-41.19998 -4.5,-67.49997l-1.10004,-8.50003l-22.19995,-4.40001c-51.30005,-10.2 -101.5,-26.99994 -143.90002,-48.20003c-17.40002,-8.70001 -32.70007,-17.20001 -43.90002,-24.60002c-5.40002,-3.5 -9.90002,-6.29999 -10,-6.29999c-0.20001,0.09999 -5.90002,3.59999 -12.79999,7.89999l0,-0.00002z" id="svg_2"/>
   <path d="m542.69531,121.44998c-3.5,5.59999 -9.59998,12.09999 -15.79993,16.7c-8.5,6.29999 -27.40002,14.29999 -20.70001,8.80002c2.39996,-2 5.5,-11.80002 5.5,-17.50003c0,-2.99997 -0.29999,-5.49997 -0.70001,-5.49997c-0.5,0.09999 -1.90002,2.3 -3.20001,5.09998c-3.89996,8 -22.29999,24.20001 -33.39999,29.39999c-4.80002,2.20001 -9.5,7.80002 -10.80002,13c-1.79999,6.90002 -4.09998,10.60001 -9.89999,15.70001c-4.69998,4.20001 -6,4.89999 -8.60001,4.5c-3.09998,-0.5 -3.19998,-0.29999 -4.5,4.10001c-1.69998,6.10001 -1.69998,11.29999 0,14.60001c1.70001,3.10001 7.90002,6.19998 14.40002,7.19998c4.69998,0.60004 4.89999,0.60004 8.39999,-3.5c5.89999,-7 14.39999,-10.39996 29.89999,-12.19998c9.29999,-1 14.40002,-3.10001 18.60004,-7.60001c3,-3.10001 5.79993,-9 5.8999,-12.5c0,-1.89999 0.30005,-1.70001 1.6001,1.19998c0.8999,2.20001 1.29993,4.80002 0.8999,7.30002c-0.59998,3.5 -0.29993,4.29999 3.70007,8.69998c5.59998,6.20001 7.09998,11.40002 6.5,22.20001c-0.80005,13.60001 -6.80005,24.10001 -24.29999,42.8c-5.80002,6.10001 -12.5,13.89999 -15.10007,17.30002c-21.29999,28.39996 -20.29999,61.79999 2.5,84.70001c8.70001,8.69995 16.5,14.09998 34.10001,23.49997c23.09998,12.30002 34.90009,21.89999 42.30005,34.20004c5.69995,9.59998 7.19995,15.29993 7.10004,27.79993c0,9 -0.5,12.10007 -2.40009,17c-5.29993,13.6001 -15.5,25.6001 -28.29993,33.10007c-6.6001,3.89993 -21.20007,9.39993 -24.90002,9.39993c-1.30005,0 -3,0.5 -3.80005,1c-1,0.70007 0.70007,0.90009 5.5,0.5c24.70007,-2.09998 44.20007,-10.5 56.90009,-24.59991l4.59991,-5.10004l0,3.30005c-0.09991,1.8999 -0.69995,5.19995 -1.5,7.3999l-1.3999,4l4.79999,-5.29993c7.89996,-8.70007 12.09991,-19.5 14.79999,-38.20007l0.79993,-5.5l2.40009,3.90002c1.39996,2.20004 2.79999,5.50006 3.09991,7.50006l0.6001,3.59991l1.19995,-5.29993c2.5,-11.20007 0.69995,-21.29999 -6.30005,-35.29999c-2.59991,-5 -4.3999,-9.30002 -4.19995,-9.60004c0.80005,-0.69998 7.80005,2.60004 11.40002,5.30002l3.29993,2.50003l-2,-4.6001c-5,-11.59991 -11.59991,-18.89996 -24.69995,-27.19995c-4,-2.59998 -7.30005,-5 -7.30005,-5.40002c0,-2.09998 9.20007,-1.79999 15.5,0.60001c1.40009,0.60001 1,-0.19998 -1.3999,-2.80002c-5,-5.29999 -15.1001,-10.19998 -27.30005,-13.29999c-5.89996,-1.39996 -11.5,-3.20001 -12.40002,-3.89999c-1.59998,-1.10001 -1.59998,-1.30002 0.5,-2.39999c1.20007,-0.70001 5.00006,-1.60001 8.40002,-2l6.19995,-0.70001l-6.5,-2.09998c-3.59991,-1.10004 -9.79993,-2.80002 -13.69995,-3.80002c-8.20007,-1.89999 -15.70007,-6.39999 -17.80005,-10.60001c-0.79993,-1.5 -1.5,-4.70001 -1.5,-7c0,-3.59998 0.59998,-4.79999 4.30005,-8.39999c9.69995,-9.69998 28.5,-9.80002 38.5,-0.19998c3.80005,3.59998 7.19995,9.59998 7.19995,12.70001c0,3.19995 1.5,2.39996 6.70007,-3.80005c8.40002,-9.59998 14.79993,-19.19995 20.09998,-29.70001c5.19995,-10.19995 11.19995,-26.09998 11.19995,-29.59998c0,-1 0.5,-1.89999 1,-1.89999c1.30005,0 1.30005,-0.30002 -0.5,11c-2.8999,18.19998 -9.59991,34.10001 -20.19995,48.00003c-2.89996,3.89996 -5.19995,7 -5.09998,7c0.20001,0 2.70001,-0.90002 5.5,-2c7,-2.60004 14.90002,-3.50003 19.90002,-2.10004c9.3999,2.5 18.59998,11.79999 21.5,21.79999c0.69995,2.40002 1.5,4.30005 1.8999,4.30005c0.40009,0 2.20007,-4.80005 3.90009,-10.80005c11.5,-39.19995 11.39996,-78.09998 -0.10004,-114.09999c-1.69995,-5.29999 -3.69995,-11 -4.5,-12.60001l-1.39996,-3l2.09991,2.39999c3.90009,4.5 10.90009,18.60001 14.40009,29.19998c9.39996,28.00002 10.20001,61.80003 2.09991,93.90004c-1.29993,5.19998 -2.69995,10.39999 -3.09991,11.39999c-0.5,1.29999 1.5,0.19995 5.79999,-3.10004c7.5,-5.79999 13.59998,-7.79999 21.20001,-7c7.20001,0.70004 12.29999,3.5 18.20001,10c9.09998,9.90002 15.19995,25.6001 17.5,44.80005c0.69995,5.39996 1.3999,9.80005 1.59998,9.60004c1.20001,-1.30005 9.90002,-27.30005 12.29993,-37.20007c5.1001,-20.70001 6.30005,-30.39999 6.30005,-51c0.10004,-20.20001 -1.09998,-29.5 -5.80005,-47c-7.3999,-27.40001 -24.59991,-56.8 -46.8999,-80.3c-23.6001,-24.70001 -55.40002,-43.60001 -88.6001,-52.60001c-7.8999,-2.10001 -24,-4.79999 -24,-4c0,0.10001 2.40009,1.5 5.30005,3.20001c21.30005,12 33.19995,34.29999 35.30005,66.29999c1.59998,22.60001 -5.6001,44.89999 -19.1001,59.40001c-4,4.29999 -4.3999,4.5 -2.5,1.5c7.1001,-11.59998 12.1001,-29.59999 11.90009,-43.2l0,-7.30002l-1.79999,6c-2.5,8.5 -4.40002,12.5 -9.70001,20.70001c-10.10004,15.8 -25.60004,27.39998 -46.50006,34.8c-17.5,6.29999 -23,10.29999 -28.19995,20.5c-3,5.79999 -3.30005,5.20001 -1.20007,-2.90002c1.90002,-7.29999 6.09998,-13.39996 12.5,-18.09998c3.20007,-2.29999 5,-4.39999 5,-5.70001c0,-4 2.20007,-9.5 6.09998,-14.89996c2.1001,-2.90002 5.30005,-7.90004 7.1001,-10.90004l3.19995,-5.5l1.19995,4c0.70007,2.20001 1.30005,5.30002 1.30005,6.8c0.09998,4.5 1.90002,2.20001 4.40002,-6.09999c3.10004,-9.60001 3.90002,-16.79999 2.90002,-25.5c-0.79999,-6.39999 -0.70007,-6.70001 1.29993,-6.70001c2.80005,0 6.20007,2.5 8.70007,6.40002l2,3.09998l-0.5,-7.09998c-0.70007,-8.60001 -2.20007,-12.40002 -8.90002,-22.70001c-4.19995,-6.39999 -4.89996,-8 -3.69995,-8.79999c1.8999,-1.30002 8.8999,-0.5 12.79999,1.39999l3.09991,1.60001l-1.69995,-3.10001c-4.09998,-7 -16.09998,-15.70001 -26.5,-19.20001c-1,-0.29999 -1.80005,-1 -1.80005,-1.5c0,-1.19998 8.59998,-4.10001 12.40009,-4.10001l3.09991,0l-2.5,-2c-3.90002,-3 -14.59998,-5.5 -23.69995,-5.5c-4.59998,0 -8.30005,-0.19998 -8.30005,-0.29999c0,-0.20001 2.30005,-2.5 5.20007,-5c9.59998,-8.70001 15.5,-20.89999 14.59998,-30.39999l-0.30005,-3.3l-2.5,4l0,0.00003zm-52.29993,49.7c-3.50003,5.5 -6.40002,7.60001 -12.20004,8.5c-4.69998,0.79999 -4.60001,-1.20001 0.30002,-6c3.19998,-3.10001 11.40002,-7.5 14.5,-7.70001c0.40002,0 -0.70001,2.40002 -2.59998,5.20001z" id="svg_3"/>
   <path d="m423.69534,144.44997c-11,3 -27.60001,10.10001 -39.29996,16.60001c-36.5,20.5 -64.40002,49.60001 -83.10001,86.80002c-21.5,42.7 -23.39999,94.59999 -5.39999,147.00005c2.19998,6.29999 4.69998,13 5.69998,14.89996l1.70001,3.40002l1.29999,-9.70004c2.39999,-18.39999 8.60001,-34.10001 17.30002,-44c10.69998,-12.10001 26.5,-13.60001 41,-3.89999c2.79999,1.89999 5.39999,3.70001 5.79999,3.89999c0.39999,0.19998 -0.60001,-3.89999 -2.20001,-9.30002c-4.59998,-15.39996 -6.79999,-31.5 -6.79999,-49.29999c0,-24.70001 3.89999,-41.89999 14.10001,-62.59999c5.19998,-10.60001 9.69998,-16.60001 6.10001,-8.20001c-6.60001,15.30002 -10.30002,37.00002 -10.30002,60.39998c0,22.60004 3.30002,43.60004 9.80002,64.00003l2.89999,9l3.60001,-7.49997c9.09998,-19.40002 27.49997,-25.40002 44.69995,-14.50003l3.60001,2.19998l0,-16.10004c0,-14.09998 0.30002,-17 2.30002,-23.59998c2.59998,-8.20001 5.69998,-14.79999 10.69998,-22.59998l3.20001,-5l-4.60001,-2.90002c-2.5,-1.59998 -7.70001,-5.90002 -11.5,-9.5c-11.10001,-10.59999 -18.5,-22.09999 -23.29999,-36.50002l-2.30002,-7l0.5,12c0.5,12.60001 3.60001,26.90004 7.70001,34.8c3.10001,6.20001 1.39999,5.29999 -3,-1.5c-5.10001,-7.79999 -8.60001,-15.7 -11.5,-25.59999c-1.89999,-6.70001 -2.20001,-10 -2.10001,-24.70001c0,-15.29999 0.29999,-18 2.79999,-27c3.30002,-12.19998 10,-26.5 15.10001,-32.29999c2.10001,-2.39999 6.89999,-6.60001 10.80002,-9.30002c7.89999,-5.5 7.19998,-5.79999 -5.30002,-2.39999l0,0.00003z" id="svg_4"/>
   <path d="m517.49536,209.54997c0.40002,6.80002 0.09998,8.10001 -2.70007,13.80002c-3.69995,7.69998 -12.59991,17.39999 -28.09995,31c-22.29999,19.59999 -29.89999,28.40001 -36.10001,42.2c-5,10.89996 -6.19998,18.09998 -5.59998,33.89999c0.59998,16.69998 3,25.10001 10.69998,36.89999c11.89996,18.20001 26.80002,29.10001 58.49997,42.60004c17,7.29999 24.40002,11.90002 31.09998,19.29999c7.1001,7.80005 8.90002,12.5 8.80005,22.69995c0,7.20007 -0.40002,9.30005 -2.59998,13.5c-11.90002,23.10007 -47.5,31.6001 -74.60004,18c-15.5,-7.89993 -25.60001,-19.3999 -33.69998,-38.79993c-6.10004,-14.40002 -9,-20.20007 -12.80002,-25.20007c-7.69998,-10.09998 -14.69998,-15.89996 -23.30002,-19.39996c-3.69998,-1.5 -4.29999,-2 -2.5,-2c4.90002,-0.19995 17.30002,7 24.30002,14.00006l6.80002,6.69995l-0.60004,-5.69995c-1.09998,-10.00006 -7.69998,-21.00006 -15.29999,-25.40002l-3.20001,-1.79999l2.10004,3.29999c4.39996,7.19995 1.10001,9.09998 -5.80002,3.29996c-8.5,-7.39999 -20.99997,-10.60001 -33.89996,-8.69998c-4.29999,0.59998 -10.29999,1.90002 -13.29999,2.90002l-5.5,1.69995l7.5,0.70001c13.89996,1.29999 21.29999,5.60004 30.09998,17.60004c3.39999,4.69995 2.39999,5.59998 -3.09998,2.79996c-4.10004,-2.10001 -3.70001,-0.59995 1.09998,4.89999c4.60001,5.30005 8.70001,7.59998 17.39999,10.09998c3.30002,1 6.60001,2 7.30002,2.30005c1.79999,0.59998 -0.90002,-5.80005 -4.60004,-11.30005c-4.5,-6.59991 -4.60001,-7.09998 -0.69998,-3.5c7.69998,7.20007 11.60001,15 17.39996,35.5c7.70001,26.70007 20,43 39.60004,52.5c10.69998,5.20007 19.60001,7.20007 33.00003,7.30005c13.09991,0 22.29999,-2.19995 34.59991,-8.39996c14.5,-7.30002 25.70007,-21.50006 29.00012,-36.90009c1.69995,-8.09991 0.59998,-20.19995 -2.5,-28.09991c-5.6001,-13.79999 -16.40002,-23.70001 -39.50012,-36c-17.59991,-9.40005 -25.19995,-14.30005 -34.09991,-21.89999c-17.80005,-15.40005 -25.90002,-34 -24.70001,-56.50003c1,-19.70001 9.19998,-35.19998 30.79999,-58.00003c18.49994,-19.69997 25.60004,-32.39998 24.70001,-43.99998c-0.40002,-4.29999 -4.09998,-13.89999 -5.80005,-15c-0.29993,-0.19998 -0.40002,3 -0.19995,7.10001l0,-0.00003z" id="svg_5"/>
   <path d="m684.89539,379.84998c-11.5,31.5 -29.09998,62.80005 -49.79999,88.59998c-27,33.70007 -69.40009,68.1001 -110.90009,90.00012l-12.29993,6.59998l-4.40002,-2.39996c-2.29999,-1.30011 -8.79999,-4.80005 -14.29999,-7.70001c-30.20001,-16.20007 -60.00003,-39.20007 -88.50003,-68.6001c-30.49997,-31.40002 -51.49997,-64.79996 -67.99997,-108.29999l-4.70001,-12.39996l-4.09998,6.89996c-4.20001,7.10004 -7.10001,14.30005 -9.80002,24.79999l-1.5,5.90002l3.70001,8.60004c10.10001,23.79999 28.79999,53.20001 47.89999,75.59991c35.69998,41.70007 76.89996,73.90002 127.70001,99.6001l15.89996,8l14.39996,-7c36,-17.30005 72,-42.70007 100.80005,-71c33,-32.30005 52,-58.30005 71.30005,-97.30005l7.79999,-15.70001l-2.20001,-9.19995c-2.20007,-8.80005 -6.79999,-19.50006 -11.40002,-26.30005l-2.30005,-3.29999l-5.29993,14.59998zm-140.20007,168.6001c0,0.20001 -1,0.8999 -2.19995,1.5c-2.20007,1.09998 -2.20007,1 -0.40002,-0.40002c2.09998,-1.70001 2.59998,-1.89996 2.59998,-1.09998z" id="svg_6"/>
   <path d="m349.39539,673.05005c-13,2.09998 -21.80002,13.40002 -20.40002,26.40002c1,9.79993 6.90002,17.5 16.10001,21c6.39999,2.5 17.80002,1.69995 24.30002,-1.70007l4.80002,-2.40002l0,-10l0,-9.8999l-5,0l-5,0l-0.5,7.5l-0.5,7.5l-3.60004,0.8999c-9.69998,2.40002 -19.89996,-5.19995 -19.89996,-14.79993c0,-12.20007 14.39996,-19.89996 24.5,-13l3.79999,2.5l3.30002,-3.20001c3.19998,-3.10004 3.29999,-3.39996 1.79999,-5.10004c-4.29999,-4.59998 -14.69998,-7.19995 -23.69998,-5.69995l-0.00003,0z" id="svg_7"/>
   <path d="m936.59546,673.05005c-6.30005,0.90002 -10.60004,3.40002 -12.90002,7.19995c-3.79999,6.20007 -1.5,14.80005 4.79993,18.09998c1.6001,0.80005 5.90009,2.30011 9.6001,3.20007c6.3999,1.59998 11.59998,4.5 11.59998,6.5c0,0.5 -0.90002,1.79999 -2,2.90002c-2.79999,2.79993 -12.79999,2.70001 -18.90002,0c-2.39996,-1.10004 -4.39996,-2 -4.59998,-2c-0.09998,0 -1,1.79993 -2,4.09998c-2.20001,4.79999 -2,5 6.40002,7.5c6.69995,2 19.09998,1.5 23.79999,-1c8.20001,-4.20007 10.20001,-16.40002 3.59998,-21.59998c-1.39996,-1.10004 -5.79999,-3 -9.70001,-4.10004c-11.09998,-3.19995 -13.59998,-4.50006 -13.59998,-7.29999c0,-5 7.20001,-6.89996 16.5,-4.20007c3.09998,1 5.79999,1.6001 6,1.40002c0.09998,-0.19995 0.90002,-1.69995 1.70001,-3.5c1.79999,-3.69995 1.29999,-4.39996 -4.20001,-6.09998c-5.20007,-1.49994 -10.90002,-1.90002 -16.09998,-1.09998z" id="svg_8"/>
   <path d="m64.39536,673.65009c-0.3,0.39996 -0.4,11.39996 -0.3,24.29999l0.10001,23.5l17.3,0l17.2,0l0,-4.20007l0,-4.29993l-11.5,0l-11.5,0l-0.2,-19.80005l-0.3,-19.69995l-5.2,-0.30005c-2.8,-0.19995 -5.3,0.09998 -5.6,0.50006l-0.00001,0z" id="svg_9"/>
   <path d="m105.89536,697.15002l0.3,24.30005l17,0l17.00002,0l0.29997,-4.20007l0.30002,-4.19995l-11.79999,-0.30005l-11.80002,-0.29993l-0.3,-19.79999l-0.2,-19.70001l-5.5,0l-5.5,0l0.2,24.19995z" id="svg_10"/>
   <path d="m136.99538,674.15002c0.3,0.70001 3.89998,8.90002 8,18.30005c4.09999,9.29993 8.59999,19.59998 10.09999,22.69995l2.60001,5.80005l5.5,0c4.39999,0 5.70001,-0.40002 6.20001,-1.80005c0.29999,-0.90002 4.69998,-11.19995 9.60002,-22.69995c4.89998,-11.60004 9.09998,-21.60004 9.39998,-22.30005c0.39999,-0.90002 -1,-1.19995 -5,-1.19995l-5.39998,0l-2.60002,5.70001c-2.5,5.69989 -8.80002,20.79999 -10.80002,26.09991c-1.10001,2.70007 -1.10001,2.59998 -3.79999,-3.29993c-1.5,-3.30005 -4.89999,-11.1001 -7.5,-17.30005l-4.89999,-11.19995l-5.90004,0c-4.49997,0 -5.89998,0.29993 -5.49997,1.19995z" id="svg_11"/>
   <path d="m193.6954,697.34998l0,24.6001l5,0l4.89998,0l0.3,-14.80005l0.30002,-14.69995l6.89998,11.5c3.8,6.29993 7,11.59998 7,11.70001c0.10002,0.09991 1.20001,0.39996 2.60002,0.69989c2.29999,0.6001 3,-0.19995 8.89998,-10.3999c9.69998,-16.70007 9,-16.70007 8.8,0.3999l-0.19998,14.90002l5,0.09998l4.99997,0.1001l0.30002,-24.30005l0.19998,-24.19995l-4.89999,0l-5,0l-8.79999,14.89996l-8.79999,14.89996l-9.10001,-14.69995l-9.10001,-14.59998l-4.59999,-0.30005l-4.7,-0.29999l0,24.49994z" id="svg_12"/>
   <path d="m292.79538,677.15002c-1.10001,2.40002 -5.79999,13 -10.5,23.70001c-4.70001,10.70001 -8.60001,19.70001 -8.60001,20.10004c0,0.89996 2.60001,1 7.20001,0.3999c3.19998,-0.49994 3.79999,-1.09998 5.69998,-5.49994l2.20001,-4.89996l11.29999,0l11.30002,0l2.09998,5c1.40002,3.29993 2.70001,5 3.90002,5.09998c8.79999,0.60004 9.29999,0.5 8.69998,-1.59998c-0.39999,-1.1001 -5.19998,-12 -10.79999,-24.30005l-10,-22.19995l-5.39999,0c-5.20001,0 -5.30002,0 -7.10001,4.19995zm14.29999,23.50006c0.70001,2.19995 0.60001,2.29999 -6.79999,2.29999c-4.20001,0 -7.60001,-0.40002 -7.60001,-0.90002c0,-0.5 0.89999,-2.80005 1.89999,-5.20001c1.10001,-2.39996 2.70001,-6.19995 3.60001,-8.39996l1.70001,-4l3.29999,7c1.79999,3.79993 3.5,8 3.89999,9.20001z" id="svg_13"/>
   <path d="m384.69537,696.85004l0,23.80005l6,0.69989c3.29999,0.40002 11.59998,0.40002 18.49997,0l12.5,-0.69989l0,-3.80005l0,-3.89996l-13,0l-13,0l0,-6l0,-6l11,0l11,0l0,-4l0,-4l-11,0l-11,0l0,-5.5l0,-5.5l12.5,0l12.5,0l0,-4.5l0,-4.5l-18,0l-17.99997,0l0,23.89996z" id="svg_14"/>
   <path d="m430.69534,697.45007l0,24.5l5,0l5,0l0,-14.6001c0,-8.09998 0.39999,-14.3999 0.89999,-14.19995c1,0.30005 11.80002,13.30005 18.80002,22.59998c4.79999,6.20007 4.79999,6.30005 9.29999,6l4.5,-0.29993l0,-24l0,-24l-5.19998,-0.30005l-5.20001,-0.29999l-0.29999,14.60004l-0.30002,14.59998l-12,-14.5c-12,-14.59998 -12,-14.59998 -16.19998,-14.59998l-4.30002,0l0,24.5z" id="svg_15"/>
   <path d="m480.69534,677.45007l0,4.39996l7.5,0.29999l7.60001,0.30005l0.20001,19.5l0.20001,19.5l5.20001,0.29993l5.29999,0.30005l0.20001,-19.80005l0.29999,-19.79993l7.49994,-0.30005l7.5,-0.29999l-0.29993,-4.39996l-0.40002,-4.5l-20.40002,0l-20.39999,0l0,4.5z" id="svg_16"/>
   <path d="m528.69531,697.45007l0,24.59998l5.30005,-0.30005l5.19995,-0.29993l0,-24l0,-24l-5.19995,-0.30005l-5.30005,-0.29999l0,24.60004z" id="svg_17"/>
   <path d="m562.19531,675.34998c-9.19995,4.20007 -13.90002,11.70007 -13.90002,22.1001c0,8.5 2.30005,13.59998 8.6001,18.8999c4.79993,4.20007 9.09998,5.6001 16.79993,5.6001c7,0 11.30005,-1.20007 16.20007,-4.6001l3.90002,-2.69989l-3.80005,-3.90009c-2.09998,-2.09991 -3.89996,-3.40002 -4.09998,-2.79993c-0.20007,0.59998 -2.20007,2 -4.5,3.09998c-10.29999,5.29993 -21.79999,-1.90002 -22,-13.90002c-0.09998,-6.29999 2.59998,-10.69995 8.09998,-13.29999c5.30005,-2.60004 12,-2.19995 16.40002,1.10004l3,2.19995l3.5,-3.49994l3.59998,-3.50006l-4,-2.59998c-8,-5.30005 -19.30005,-6.20007 -27.80005,-2.20007z" id="svg_18"/>
   <path d="m620.69531,697.45007l0,24.59998l5.30005,-0.30005l5.19995,-0.29993l0.30005,-9.79999l0.30005,-9.70001l10.8999,0l11,0l0,9.89996l0,9.80005l5.30005,-0.10004l5.19995,-0.09998l0,-24l0,-24l-5.19995,-0.30005l-5.19995,-0.29999l-0.30005,9.70001l-0.30005,9.59998l-10.69995,0.30005l-10.69995,0.29993l-0.30005,-9.69995l-0.30005,-9.59998l-5.19995,-0.30005l-5.30005,-0.29999l0,24.60004z" id="svg_19"/>
   <path d="m685.49536,685.65009c-3.09998,7.09991 -7.89996,17.89996 -10.69995,24l-5,11.29999l5.79999,0l5.70001,0l1.79999,-5l1.79999,-5l11.29993,0l11.20007,0l2.09998,4.89996l2,4.89996l5.60004,0.40002c3.09991,0.09998 5.59991,0 5.59991,-0.49994c0,-0.70001 -8.19995,-19 -17.5,-39.50006l-3.79993,-8.19995l-5.20007,0l-5.09991,0l-5.60004,12.70001zm15,8.09991c1.80005,4 3.19995,7.70007 3.19995,8.20007c0,0.59998 -3.19995,1 -7.59991,1c-6.20001,0 -7.5,-0.29999 -7.10004,-1.40002c3.60004,-9.30005 7.10004,-16.59998 7.69995,-15.89996c0.30005,0.39996 2.1001,4.09991 3.80005,8.09991z" id="svg_20"/>
   <path d="m728.69531,696.85004c0,27 -0.79993,24.20001 7.30005,24.49994l3.19995,0.1001l0.30005,-6.79999l0.30005,-6.70001l4.8999,0c4.80005,0 4.80005,0 9.40009,6.3999l4.59991,6.40002l6,0.40002c3.30005,0.09998 6,0.09998 6,-0.09998c0,-0.20001 -2.59991,-3.80005 -5.69995,-8c-4,-5.39996 -5.19995,-7.59998 -4.19995,-8c2.69995,-0.90002 6.69995,-5.80005 7.8999,-9.80005c2.5,-8.09998 -1.19995,-16.09998 -8.79993,-19.59991c-3.79999,-1.70001 -7.20007,-2.20001 -17.90002,-2.50006l-13.30005,-0.40002l0,24.10004zm27.6001,-11.60004c1.29999,1.60004 2.3999,4 2.3999,5.5c-0.09991,5.5 -4.29993,8.20007 -12.8999,8.20007l-6.1001,0l0,-8.6001l0,-8.59998l7.1001,0.40002c6.29999,0.30005 7.3999,0.70001 9.5,3.09998z" id="svg_21"/>
   <path d="m778.69531,697.55005l0,24.5l5.30005,-0.30005l5.19995,-0.29993l0.5,-14.60004l0.5,-14.60004l11.40009,14.30005c10.60004,13.19995 11.60004,14.19995 15.40002,14.79993c2.20001,0.40002 4.40002,0.30011 4.90002,-0.19995c0.5,-0.49994 0.70001,-11.40002 0.59991,-24.29999l-0.29993,-23.39996l-5.20001,-0.30005l-5.29999,-0.29999l0,14.80005c-0.09998,12.69989 -0.29999,14.49994 -1.40002,13c-0.80005,-1 -6.20001,-7.60004 -12.1001,-14.70001l-10.69995,-13l-4.39996,0l-4.40009,0l0,24.59998z" id="svg_22"/>
   <path d="m833.89545,697.15002l0.29999,24.19995l18.20001,0.1001l18.29999,0l0,-4.30005l0,-4.19995l-13,0l-13,0l0,-6l0,-6l11,0l11,0l0,-4l0,-4l-11,0l-11,0l0,-5.5l0,-5.5l12.5,0l12.5,0l0,-4.5l0,-4.5l-18,0l-18,0l0.20001,24.19995z" id="svg_23"/>
   <path d="m885.99542,674.95007c-10.50006,4.70001 -11.20001,18.3999 -1.29999,23.5c1.5,0.79993 6.09998,2.29993 10.09998,3.5c11.80005,3.19995 14.20001,7.79993 5.60004,10.70001c-4.20001,1.39996 -13.60004,0.19995 -17.40002,-2.30011c-1.20001,-0.79993 -2.39996,-1.3999 -2.59998,-1.3999c-0.20001,0 -1.20001,1.79993 -2.20001,4.09998c-2.20001,4.69995 -1.90002,5 5.90002,7.40002c6.5,2 17,1.79993 22.59998,-0.30005c7.90002,-3 11.29999,-11.80005 7.5,-19.09998c-1.59998,-3.30005 -7.59998,-6.5 -14.90002,-8.09998c-7.29999,-1.6001 -10.59998,-3.6001 -10.59998,-6.5c0,-4.90002 8.40002,-6.90002 16.5,-4c2.20001,0.79993 4.29993,1.5 4.70001,1.5c0.59991,0 3.79999,-6.29999 3.79999,-7.5c0,-0.20007 -1.79999,-1 -4,-1.90002c-5.79999,-2.30005 -18.29999,-2.09998 -23.70001,0.40002z" id="svg_24"/>
  </g>
 </g>

</svg>
